<?xml version="1.0" standalone="no"?><!DOCTYPE svg PUBLIC "-//W3C//DTD SVG 1.1//EN" "http://www.w3.org/Graphics/SVG/1.1/DTD/svg11.dtd"><svg t="1606207655450" class="icon" viewBox="0 0 1146 1024" version="1.1" xmlns="http://www.w3.org/2000/svg" p-id="2017" xmlns:xlink="http://www.w3.org/1999/xlink" width="223.828125" height="200"><defs><style type="text/css"></style></defs><path d="M254.171429 380.745143c9.984-9.947429 20.809143-18.834286 32.329142-26.550857l8.777143-5.595429 43.958857 73.142857c-6.692571 4.022857-13.019429 8.667429-18.944 13.897143l-5.778285 5.485714-160.914286 160.877715a128 128 0 0 0 176.676571 185.161143l4.388572-4.132572 160.877714-160.914286c5.851429-5.851429 11.081143-12.178286 15.616-18.907428l4.315429-6.838857 73.581714 43.227428c-7.314286 12.434286-15.872 24.137143-25.6 34.925715l-7.570286 7.936-160.914285 160.914285a213.321143 213.321143 0 0 1-306.468572-296.740571l4.754286-4.973714 160.914286-160.914286z m289.462857-289.426286L548.571429 86.528a213.321143 213.321143 0 0 1 302.445714 300.617143l-5.705143 5.851428-160.914286 160.914286-7.936 7.570286c-8.082286 7.314286-16.676571 13.970286-25.746285 19.894857l-9.142858 5.741714-43.264-73.581714 6.875429-4.315429c4.461714-3.035429 8.777143-6.363429 12.873143-9.984l5.997714-5.668571 160.914286-160.914286 4.169143-4.352a128 128 0 0 0-180.077715-181.467428l-5.12 4.827428-160.914285 160.914286-5.412572 5.778286c-3.474286 3.913143-6.729143 8.045714-9.654857 12.361143l-4.242286 6.582857-73.142857-43.958857 5.558857-8.777143a213.577143 213.577143 0 0 1 19.309715-24.722286l7.277714-7.606857 160.914286-160.914286zM555.885714 320.365714a42.678857 42.678857 0 0 1 60.342857 60.342857l-221.257142 221.257143a42.678857 42.678857 0 1 1-60.342858-60.342857l221.257143-221.257143z" p-id="2018"></path></svg>