<?xml version="1.0" standalone="no"?><!DOCTYPE svg PUBLIC "-//W3C//DTD SVG 1.1//EN" "http://www.w3.org/Graphics/SVG/1.1/DTD/svg11.dtd"><svg t="1606207701368" class="icon" viewBox="0 0 1024 1024" version="1.1" xmlns="http://www.w3.org/2000/svg" p-id="3383" xmlns:xlink="http://www.w3.org/1999/xlink" width="200" height="200"><defs><style type="text/css"></style></defs><path d="M962.8 957.6c-20.8 0-37.6-17-37.6-37.6 0-121.2-98.6-220-220-220s-220 98.6-220 220c0 20.8-17 37.6-37.6 37.6-20.8 0-37.6-17-37.6-37.6 0-110 60.8-210.2 158.6-261.6l6.8-3.6-5.8-5c-46.8-40-73.8-98-73.8-159.2 0-115.4 94-209.4 209.4-209.4s209.4 94 209.4 209.4c0 61.2-26.8 119.2-73.8 159.2l-5.8 5 6.8 3.6c97.8 51.4 158.6 151.6 158.6 261.6 0.2 20.6-16.8 37.6-37.6 37.6zM705.2 356.4c-74 0-134 60.2-134 134 0 74 60.2 134 134 134 74 0 134-60.2 134-134s-60-134-134-134z" p-id="3384"></path><path d="M125.6 957.6C57.4 957.6 2 902.2 2 834V190C2 121.8 57.4 66.4 125.6 66.4h772.8c68.2 0 123.6 55.4 123.6 123.6v171.8c0 20.8-17 37.6-37.6 37.6-20.8 0-37.6-17-37.6-37.6V190c0-26.6-21.6-48.2-48.2-48.2h-773c-26.6 0-48.2 21.6-48.2 48.2v644c0 26.6 21.6 48.2 48.2 48.2h162.8c20.8 0 37.6 17 37.6 37.6 0 20.8-17 37.6-37.6 37.6H125.6z" p-id="3385"></path><path d="M206 356.4c-20.8 0-37.6-17-37.6-37.6 0-20.8 17-37.6 37.6-37.6h189.6c20.8 0 37.6 17 37.6 37.6 0 20.8-17 37.6-37.6 37.6H206z m0 193.2c-20.8 0-37.6-17-37.6-37.6 0-20.8 17-37.6 37.6-37.6h168.2c20.8 0 37.6 17 37.6 37.6 0 20.8-17 37.6-37.6 37.6H206z m0 193.4c-20.8 0-37.6-17-37.6-37.6 0-20.8 17-37.6 37.6-37.6h125.2c20.8 0 37.6 17 37.6 37.6 0 20.8-17 37.6-37.6 37.6H206z" p-id="3386"></path></svg>